HIERARCHY
ROOT Hips
{
	OFFSET 49.488201 -7.268254 86.442398
	CHANNELS 6 Xposition Yposition Zposition Xrotation Yrotation Zrotation
	JOINT spine
	{
		OFFSET 0.000000 -0.393701 6.846367
		CHANNELS 3 Xrotation Yrotation Zrotation
		JOINT spine1
		{
			OFFSET 0.000000 -0.000001 9.496208
			CHANNELS 3 Xrotation Yrotation Zrotation
			JOINT spine2
			{
				OFFSET 0.000000 -0.000001 9.099091
				CHANNELS 3 Xrotation Yrotation Zrotation
				JOINT Neck
				{
					OFFSET 0.000000 -1.113784 23.361206
					CHANNELS 3 Xrotation Yrotation Zrotation
					JOINT Head
					{
						OFFSET 0.000000 -0.000001 7.058014
						CHANNELS 3 Xrotation Yrotation Zrotation
						End Site
						{
							OFFSET 0.000000 5.634187 17.084396
						}
					}
				}
				JOINT RightShoulder
				{
					OFFSET -3.831360 0.533489 9.826309
					CHANNELS 3 Xrotation Yrotation Zrotation
					JOINT RightArm
					{
						OFFSET 0.000000 -0.000002 12.888107
						CHANNELS 3 Xrotation Yrotation Zrotation
						JOINT RightArmRoll
						{
							OFFSET 0.000000 -0.000001 6.506165
							CHANNELS 3 Xrotation Yrotation Zrotation
							JOINT RightForeArm
							{
								OFFSET 0.000000 -0.000003 18.950104
								CHANNELS 3 Xrotation Yrotation Zrotation
								JOINT RightForeArmRoll
								{
									OFFSET 0.000000 -0.000001 7.300934
									CHANNELS 3 Xrotation Yrotation Zrotation
									JOINT RightHand
									{
										OFFSET 0.000000 -0.000002 14.651398
										CHANNELS 3 Xrotation Yrotation Zrotation
										End Site
										{
											OFFSET 0.000000 0.000000 0.100006
										}
									}
								}
							}
						}
					}
				}
				JOINT LeftShoulder
				{
					OFFSET 3.831360 0.533489 9.826309
					CHANNELS 3 Xrotation Yrotation Zrotation
					JOINT LeftArm
					{
						OFFSET 0.000000 -0.000002 12.888107
						CHANNELS 3 Xrotation Yrotation Zrotation
						JOINT LeftArmRoll
						{
							OFFSET 0.000000 -0.000001 6.506165
							CHANNELS 3 Xrotation Yrotation Zrotation
							JOINT LeftForeArm
							{
								OFFSET 0.000000 -0.000003 18.950104
								CHANNELS 3 Xrotation Yrotation Zrotation
								JOINT LeftForeArmRoll
								{
									OFFSET 0.000000 -0.000001 7.300934
									CHANNELS 3 Xrotation Yrotation Zrotation
									JOINT LeftHand
									{
										OFFSET 0.000000 -0.000002 14.651398
										CHANNELS 3 Xrotation Yrotation Zrotation
										End Site
										{
											OFFSET 0.000000 0.000000 0.100006
										}
									}
								}
							}
						}
					}
				}
			}
		}
	}
	JOINT RightUpLeg
	{
		OFFSET -6.068371 0.933477 -1.112778
		CHANNELS 3 Xrotation Yrotation Zrotation
		JOINT RightUpLegRoll
		{
			OFFSET 0.000000 -0.000003 17.179596
			CHANNELS 3 Xrotation Yrotation Zrotation
			JOINT RightLeg
			{
				OFFSET 0.000000 0.000003 -21.274300
				CHANNELS 3 Xrotation Yrotation Zrotation
				JOINT RightLegRoll
				{
					OFFSET 0.000000 -0.000003 21.343903
					CHANNELS 3 Xrotation Yrotation Zrotation
					JOINT RightFoot
					{
						OFFSET 0.000000 -0.000003 17.765198
						CHANNELS 3 Xrotation Yrotation Zrotation
						JOINT RightToeBase
						{
							OFFSET 0.000000 -0.000002 14.850807
							CHANNELS 3 Xrotation Yrotation Zrotation
							End Site
							{
								OFFSET 0.006294 0.829003 7.192123
							}
						}
					}
				}
			}
		}
	}
	JOINT LeftUpLeg
	{
		OFFSET 6.068371 0.933477 -1.112778
		CHANNELS 3 Xrotation Yrotation Zrotation
		JOINT LeftUpLegRoll
		{
			OFFSET 0.000000 -0.000003 17.179703
			CHANNELS 3 Xrotation Yrotation Zrotation
			JOINT LeftLeg
			{
				OFFSET 0.000000 -0.000003 21.274200
				CHANNELS 3 Xrotation Yrotation Zrotation
				JOINT LeftLegRoll
				{
					OFFSET 0.000000 -0.000004 21.541199
					CHANNELS 3 Xrotation Yrotation Zrotation
					JOINT LeftFoot
					{
						OFFSET 0.000000 -0.000003 17.567902
						CHANNELS 3 Xrotation Yrotation Zrotation
						JOINT LeftToeBase
						{
							OFFSET 0.000000 -0.000002 14.850800
							CHANNELS 3 Xrotation Yrotation Zrotation
							End Site
							{
								OFFSET -0.028210 0.829004 7.192123
							}
						}
					}
				}
			}
		}
	}
}
MOTION
Frames: 11
Frame Time: 0.041667
49.593204 -6.433666 86.402710 -2.108414 0.098009 -0.301450 -1.760441 -1.494915 1.218488 0.513762 -3.014570 2.406948 2.159153 -2.986052 2.442748 5.735166 18.339060 -1.713411 7.926850 -10.835976 -2.595551 -10.843060 -50.840633 -12.327171 -55.647996 -118.141673 -40.556680 -0.000002 0.000009 -0.000011 8.705689 -16.554683 1.116252 -0.000006 0.000011 -3.001069 -5.000168 -7.998893 0.000168 -33.497116 75.116932 38.090558 -77.070543 121.487701 61.460986 -0.000004 0.000002 0.000002 15.103573 19.558136 -2.796383 -0.000002 -0.000004 3.004172 -5.000151 7.999192 -0.000143 -14.572222 179.426078 -2.547392 179.999991 -0.000005 -1.378996 155.115386 -3.636938 -1.250410 0.000001 0.000001 0.742204 72.985311 7.715780 -0.546647 25.456953 -7.355614 0.000009 -13.188744 175.834437 -0.537202 -0.000005 -0.000004 -0.789151 -25.961694 1.534136 1.306159 -0.000002 -0.000000 -0.423576 74.738109 -5.816046 -4.908585 25.456959 7.355614 0.000001 
49.581703 -6.433928 86.404900 -2.107992 0.099889 -0.296706 -1.761528 -1.494914 1.216900 0.511545 -3.014530 2.403732 2.156940 -2.986017 2.439541 5.730491 18.339198 -1.709620 7.870406 -10.851891 -2.594911 -10.837772 -50.846056 -12.320923 -55.645076 -118.181971 -40.590995 -0.000002 0.000008 -0.000011 8.757063 -16.558470 1.123496 -0.000005 0.000010 -3.001070 -5.000171 -7.998891 0.000167 -33.569553 75.137005 38.167053 -77.109496 121.497755 61.488785 -0.000002 0.000004 0.000004 15.043222 19.567744 -2.789304 -0.000002 -0.000004 3.004169 -5.000153 7.999191 -0.000142 -14.579343 179.418346 -2.555680 179.999991 -0.000005 -1.378996 155.107271 -3.630337 -1.249976 0.000001 0.000001 0.743077 72.986315 7.714821 -0.543961 25.456953 -7.355612 0.000009 -13.194606 175.831609 -0.535015 -0.000005 -0.000005 -0.789151 -25.965847 1.530458 1.306163 -0.000004 -0.000001 -0.423576 74.735868 -5.814933 -4.913951 25.456957 7.355613 0.000001 
49.578804 -6.427607 86.400497 -2.107182 0.101841 -0.291897 -1.762668 -1.494913 1.215230 0.509214 -3.014472 2.400339 2.154617 -2.985963 2.436169 5.726390 18.339816 -1.705553 7.813251 -10.868020 -2.594024 -10.832021 -50.851219 -12.314075 -55.638700 -118.223157 -40.621672 -0.000002 0.000008 -0.000011 8.807676 -16.562574 1.130714 -0.000009 0.000011 -3.001070 -5.000171 -7.998891 0.000167 -33.644399 75.157271 38.246095 -77.149213 121.507412 61.517642 -0.000000 0.000002 0.000004 14.983202 19.577501 -2.782256 0.000000 -0.000004 3.004169 -5.000148 7.999192 -0.000142 -14.587064 179.409672 -2.564134 179.999991 -0.000005 -1.378996 155.099007 -3.624651 -1.249987 0.000002 0.000001 0.743979 72.987217 7.713871 -0.541166 25.456953 -7.355614 0.000009 -13.200986 175.827825 -0.532419 -0.000005 -0.000005 -0.789151 -25.970000 1.526627 1.306167 -0.000004 -0.000000 -0.423576 74.733396 -5.813775 -4.919422 25.456960 7.355613 0.000001 
49.579002 -6.438455 86.405296 -2.106111 0.103842 -0.287042 -1.763849 -1.494912 1.213499 0.506804 -3.014393 2.396841 2.152204 -2.985886 2.432670 5.722689 18.340728 -1.701284 7.755578 -10.884353 -2.592972 -10.825939 -50.856202 -12.306820 -55.633786 -118.263701 -40.654307 -0.000002 0.000009 -0.000011 8.857750 -16.566883 1.137907 -0.000008 0.000011 -3.001069 -5.000173 -7.998890 0.000167 -33.720931 75.177618 38.326951 -77.189313 121.516510 61.547026 -0.000001 0.000004 0.000004 14.923526 19.587593 -2.775328 -0.000000 -0.000003 3.004169 -5.000148 7.999191 -0.000141 -14.595091 179.400970 -2.572872 179.999991 -0.000005 -1.378996 155.090688 -3.618059 -1.249568 0.000001 0.000001 0.744902 72.988105 7.712890 -0.538175 25.456957 -7.355614 0.000009 -13.207872 175.824041 -0.529706 -0.000005 -0.000005 -0.789151 -25.974152 1.522688 1.306168 -0.000003 -0.000001 -0.423576 74.730718 -5.812607 -4.925103 25.456957 7.355614 0.000001 
49.568604 -6.428088 86.399605 -2.104882 0.105872 -0.282161 -1.765052 -1.494911 1.211728 0.504345 -3.014313 2.393261 2.149750 -2.985802 2.429108 5.719226 18.341824 -1.696904 7.697616 -10.900786 -2.591841 -10.819689 -50.861099 -12.299345 -55.625723 -118.305283 -40.683383 -0.000001 0.000009 -0.000011 8.907512 -16.571190 1.145070 -0.000007 0.000010 -3.001070 -5.000171 -7.998891 0.000167 -33.798737 75.198115 38.409138 -77.229803 121.525471 61.576901 -0.000002 0.000002 0.000000 14.863844 19.597672 -2.768323 0.000000 -0.000003 3.004169 -5.000155 7.999191 -0.000142 -14.603423 179.391312 -2.581525 179.999991 -0.000005 -1.378997 155.082355 -3.611454 -1.250152 0.000000 0.000001 0.745836 72.988890 7.711920 -0.535273 25.456957 -7.355614 0.000009 -13.214855 175.820271 -0.526925 -0.000007 -0.000005 -0.789151 -25.978201 1.518698 1.306171 -0.000003 -0.000001 -0.423576 74.728007 -5.811390 -4.930881 25.456959 7.355613 0.000001 
49.573303 -6.421217 86.390999 -2.103602 0.107910 -0.277271 -1.766262 -1.494920 1.209956 0.501876 -3.014225 2.389670 2.147286 -2.985725 2.425528 5.715817 18.342926 -1.692483 7.639553 -10.917210 -2.590731 -10.813372 -50.865911 -12.291782 -55.619231 -118.346305 -40.714331 -0.000004 0.000009 -0.000011 8.957205 -16.575587 1.152257 -0.000008 0.000011 -3.001070 -5.000170 -7.998891 0.000168 -33.876915 75.218565 38.491722 -77.270265 121.534433 61.606756 0.000001 0.000001 0.000003 14.804275 19.607824 -2.761352 -0.000001 -0.000003 3.004171 -5.000152 7.999191 -0.000140 -14.611743 179.382624 -2.590475 179.999991 -0.000005 -1.378996 155.074036 -3.604862 -1.249729 -0.000000 0.000001 0.746774 72.989765 7.710914 -0.532285 25.456953 -7.355614 0.000009 -13.221941 175.816487 -0.524126 -0.000002 -0.000005 -0.789151 -25.982349 1.514680 1.306169 -0.000002 -0.000000 -0.423576 74.725302 -5.810169 -4.936655 25.456957 7.355613 0.000001 
49.573902 -6.426976 86.395203 -2.102407 0.109935 -0.272395 -1.767462 -1.494919 1.208195 0.499426 -3.014146 2.386111 2.144833 -2.985641 2.421976 5.712301 18.344025 -1.688122 7.581635 -10.933629 -2.589704 -10.807133 -50.870802 -12.284333 -55.612913 -118.387409 -40.745412 -0.000003 0.000009 -0.000010 9.007045 -16.579967 1.159464 -0.000005 0.000011 -3.001069 -5.000170 -7.998889 0.000168 -33.954878 75.238932 38.574067 -77.310542 121.543449 61.636399 -0.000002 0.000003 0.000003 14.744686 19.617961 -2.754378 -0.000002 -0.000004 3.004171 -5.000154 7.999191 -0.000141 -14.619970 179.373950 -2.599344 179.999991 -0.000005 -1.378996 155.065593 -3.598257 -1.249305 0.000001 0.000001 0.747706 72.990550 7.709947 -0.529284 25.456957 -7.355615 0.000009 -13.228925 175.812717 -0.521353 -0.000005 -0.000004 -0.789151 -25.986401 1.510698 1.306170 -0.000003 -0.000000 -0.423576 74.722509 -5.808986 -4.942440 25.456960 7.355613 0.000001 
49.567703 -6.438778 86.398590 -2.101382 0.111927 -0.267550 -1.768632 -1.494918 1.206484 0.497032 -3.014068 2.382624 2.142440 -2.985565 2.418509 5.708512 18.344835 -1.683892 7.524044 -10.950030 -2.588827 -10.801148 -50.875880 -12.277193 -55.606633 -118.428500 -40.776308 -0.000004 0.000008 -0.000011 9.057243 -16.584217 1.166697 -0.000007 0.000011 -3.001069 -5.000170 -7.998891 0.000167 -34.032053 75.259198 38.655551 -77.350574 121.552710 61.665721 0.000001 0.000002 0.000002 14.684881 19.627991 -2.747327 0.000001 -0.000005 3.004170 -5.000155 7.999190 -0.000142 -14.627992 179.365262 -2.608017 179.999991 -0.000005 -1.378997 155.057370 -3.591670 -1.248885 0.000001 0.000001 0.748624 72.991438 7.708966 -0.526393 25.456955 -7.355613 0.000009 -13.235594 175.809916 -0.518893 -0.000005 -0.000005 -0.789151 -25.990557 1.506788 1.306171 -0.000003 -0.000001 -0.423576 74.719927 -5.807806 -4.948015 25.456960 7.355613 0.000001 
49.564705 -6.432165 86.394592 -2.100666 0.113863 -0.262756 -1.769762 -1.494917 1.204825 0.494726 -3.014009 2.379282 2.140136 -2.985510 2.415166 5.704291 18.345359 -1.679891 7.467006 -10.966211 -2.588220 -10.795467 -50.881026 -12.270437 -55.602067 -118.469112 -40.809089 -0.000003 0.000009 -0.000012 9.108037 -16.588231 1.173962 -0.000005 0.000011 -3.001069 -5.000171 -7.998892 0.000167 -34.107683 75.279265 38.735379 -77.389964 121.562505 61.694155 -0.000002 0.000003 0.000002 14.624712 19.637748 -2.740139 0.000000 -0.000003 3.004168 -5.000151 7.999191 -0.000140 -14.635521 179.356588 -2.616360 179.999991 -0.000005 -1.378996 155.049146 -3.585071 -1.248445 0.000000 0.000001 0.749519 72.992353 7.708044 -0.523696 25.456953 -7.355613 0.000009 -13.241977 175.806132 -0.516322 -0.000004 -0.000005 -0.789151 -25.994706 1.502986 1.306168 -0.000004 -0.000000 -0.423576 74.717454 -5.806649 -4.953587 25.456962 7.355614 0.000001 
49.568302 -6.427757 86.387405 -2.100360 0.115723 -0.258033 -1.770831 -1.494917 1.203267 0.492543 -3.013979 2.376118 2.137963 -2.985485 2.412012 5.699452 18.345306 -1.676183 7.410733 -10.982172 -2.587936 -10.790300 -50.886535 -12.264352 -55.597788 -118.509875 -40.841714 -0.000003 0.000009 -0.000011 9.159667 -16.591993 1.181300 -0.000009 0.000011 -3.001069 -5.000175 -7.998891 0.000167 -34.180947 75.299024 38.812649 -77.428609 121.572900 61.721653 -0.000002 0.000003 0.000004 14.564105 19.647328 -2.732853 0.000002 -0.000004 3.004171 -5.000151 7.999191 -0.000140 -14.642542 179.347900 -2.624265 179.999991 -0.000005 -1.378997 155.040991 -3.579394 -1.248437 0.000002 0.000001 0.750383 72.993453 7.707043 -0.520920 25.456955 -7.355613 0.000009 -13.247656 175.802335 -0.513952 -0.000004 -0.000004 -0.789151 -25.998861 1.499356 1.306170 -0.000002 -0.000000 -0.423576 74.715228 -5.805554 -4.958854 25.456960 7.355614 0.000000 
49.565403 -6.432699 86.390007 -2.100584 0.117487 -0.253400 -1.771823 -1.494915 1.201811 0.490516 -3.013971 2.373181 2.135940 -2.985468 2.409086 5.693823 18.344674 -1.672863 7.355435 -10.998000 -2.588046 -10.785733 -50.892272 -12.259011 -55.593932 -118.550869 -40.874492 -0.000003 0.000009 -0.000010 9.212339 -16.595396 1.188699 -0.000008 0.000011 -3.001070 -5.000170 -7.998890 0.000167 -34.251097 75.318367 38.886572 -77.466462 121.584156 61.748011 -0.000002 0.000002 0.000004 14.503036 19.656542 -2.725429 -0.000000 -0.000004 3.004168 -5.000155 7.999193 -0.000142 -14.648871 179.340168 -2.631839 179.999991 -0.000005 -1.378996 155.032836 -3.573716 -1.248414 -0.000000 0.000001 0.751207 72.994594 7.706128 -0.518437 25.456953 -7.355613 0.000009 -13.252719 175.799507 -0.512037 -0.000005 -0.000005 -0.789151 -26.003119 1.495921 1.306168 -0.000004 -0.000000 -0.423576 74.713336 -5.804510 -4.963813 25.456959 7.355613 0.000000 
